<svg width="79" height="206" viewBox="0 0 79 206" fill="none" xmlns="http://www.w3.org/2000/svg">
<path d="M78.9702 206V206.221H79.1912V206H78.9702ZM39.0321 206H38.811V206.221H39.0321V206ZM39.0321 49.6228H39.2531V49.3005L38.9524 49.4166L39.0321 49.6228ZM0.0784321 64.6699H-0.142618V64.9923L0.158083 64.8761L0.0784321 64.6699ZM0.0784321 31.4819L-0.0051899 31.2773L-0.142618 31.3335V31.4819H0.0784321ZM74.7513 0.965904V0.74485H74.7079L74.6677 0.761284L74.7513 0.965904ZM78.9702 0.965904H79.1912V0.74485H78.9702V0.965904ZM78.9702 205.779H39.0321V206.221H78.9702V205.779ZM39.2531 206V49.6228H38.811V206H39.2531ZM38.9524 49.4166L-0.0012207 64.4637L0.158083 64.8761L39.1117 49.829L38.9524 49.4166ZM0.299482 64.6699V31.4819H-0.142618V64.6699H0.299482ZM0.162054 31.6866L74.835 1.17052L74.6677 0.761284L-0.0051899 31.2773L0.162054 31.6866ZM74.7513 1.18695H78.9702V0.74485H74.7513V1.18695ZM78.7491 0.965904V206H79.1912V0.965904H78.7491Z" fill="#FE6601" fill-opacity="0.6"/>
</svg>
