<svg width="122" height="202" viewBox="0 0 122 202" fill="none" xmlns="http://www.w3.org/2000/svg">
<path d="M121.346 202V202.215H121.561V202H121.346ZM3.99354 202H3.77855V202.215H3.99354V202ZM3.99354 174.645L3.82455 174.512L3.77855 174.571V174.645H3.99354ZM57.8826 106.121L58.0517 106.254L58.0567 106.247L57.8826 106.121ZM67.4567 91.76L67.6414 91.8701L67.6424 91.8684L67.4567 91.76ZM73.2013 39.7859L73.0169 39.8965L73.0184 39.8989L73.2013 39.7859ZM51.0438 34.862L51.1601 35.0429L51.1646 35.0399L51.0438 34.862ZM44.6155 41.8375L44.8003 41.9473L44.8018 41.9448L44.6155 41.8375ZM39.5548 65.6362V65.8512H39.7698V65.6362H39.5548ZM0.710964 65.6362H0.49597V65.8512H0.710964V65.6362ZM4.81419 40.1962L4.61166 40.124L4.61094 40.1261L4.81419 40.1962ZM16.7135 19.4065L16.5519 19.2648L16.5507 19.2662L16.7135 19.4065ZM35.5884 5.31879L35.498 5.12372L35.4971 5.12415L35.5884 5.31879ZM84.8271 4.08782L84.7504 4.28871L84.7536 4.28987L84.8271 4.08782ZM113.139 32.9472L112.936 33.0159L112.936 33.0183L113.139 32.9472ZM114.233 76.031L114.441 76.0889L114.441 76.0881L114.233 76.031ZM106.711 94.6323L106.521 94.5317L106.52 94.5339L106.711 94.6323ZM94.9483 113.507L95.1212 113.635L95.1221 113.634L94.9483 113.507ZM79.2193 133.339L79.0549 133.201L79.0487 133.208L79.0432 133.216L79.2193 133.339ZM53.6426 169.858L53.4665 169.735L53.2295 170.073H53.6426V169.858ZM121.346 169.858H121.561V169.643H121.346V169.858ZM121.346 201.785H3.99354V202.215H121.346V201.785ZM4.20854 202V174.645H3.77855V202H4.20854ZM4.16254 174.778L58.0516 106.254L57.7136 105.988L3.82455 174.512L4.16254 174.778ZM58.0567 106.247C61.889 100.955 65.0842 96.1626 67.6414 91.8701L67.272 91.65C64.723 95.9287 61.5354 100.71 57.7084 105.995L58.0567 106.247ZM67.6424 91.8684C70.1989 87.4858 72.255 83.4656 73.8094 79.808L73.4137 79.6398C71.868 83.2769 69.8208 87.2807 67.271 91.6517L67.6424 91.8684ZM73.8094 79.808C75.3638 76.1507 76.463 72.7631 77.1047 69.646L76.6836 69.5593C76.0488 72.6425 74.9596 76.0025 73.4137 79.6398L73.8094 79.808ZM77.1047 69.646C77.7457 66.5327 78.0666 63.5091 78.0666 60.5755H77.6366C77.6366 63.4777 77.3192 66.4721 76.6836 69.5593L77.1047 69.646ZM78.0666 60.5755C78.0666 51.7095 76.5133 44.7348 73.3841 39.6728L73.0184 39.8989C76.0896 44.8671 77.6366 51.7522 77.6366 60.5755H78.0666ZM73.3856 39.6753C70.3386 34.5969 65.8926 32.0483 60.0709 32.0483V32.4783C65.7383 32.4783 70.0459 34.9447 73.0169 39.8965L73.3856 39.6753ZM60.0709 32.0483C56.5684 32.0483 53.5162 32.9245 50.9231 34.6841L51.1646 35.0399C53.6778 33.3345 56.6435 32.4783 60.0709 32.4783V32.0483ZM50.9276 34.6812C48.3417 36.3435 46.1763 38.6957 44.4291 41.7302L44.8018 41.9448C46.5196 38.9612 48.6398 36.6631 51.1601 35.0428L50.9276 34.6812ZM44.4306 41.7277C42.6832 44.6707 41.3993 48.2052 40.575 52.3269L40.9966 52.4113C41.8136 48.3265 43.0828 44.84 44.8003 41.9473L44.4306 41.7277ZM40.575 52.3269C39.7512 56.4457 39.3398 60.8824 39.3398 65.6362H39.7698C39.7698 60.907 40.1791 56.4989 40.9966 52.4113L40.575 52.3269ZM39.5548 65.4212H0.710964V65.8512H39.5548V65.4212ZM0.925958 65.6362C0.925958 56.6311 2.2903 48.175 5.01744 40.2663L4.61094 40.1261C1.86711 48.0832 0.49597 56.5871 0.49597 65.6362H0.925958ZM5.01671 40.2684C7.83516 32.3585 11.7888 25.4522 16.8764 19.5469L16.5507 19.2662C11.4258 25.2146 7.44654 32.1681 4.61167 40.124L5.01671 40.2684ZM16.8752 19.5483C22.0524 13.6445 28.3198 8.96623 35.6797 5.51343L35.4971 5.12415C28.0854 8.60123 21.7695 13.3148 16.5519 19.2648L16.8752 19.5483ZM35.6788 5.51385C43.124 2.06364 51.4814 0.336365 60.7548 0.336365V-0.0936203C51.427 -0.0936203 43.0067 1.64406 35.498 5.12373L35.6788 5.51385ZM60.7548 0.336365C69.8527 0.336365 77.8499 1.6556 84.7504 4.28869L84.9037 3.88696C77.9444 1.23145 69.8935 -0.0936203 60.7548 -0.0936203V0.336365ZM84.7536 4.28987C91.7476 6.83317 97.6007 10.5096 102.317 15.3171L102.624 15.016C97.8582 10.1581 91.9486 6.44872 84.9005 3.88577L84.7536 4.28987ZM102.317 15.3171C107.034 20.1245 110.574 26.0226 112.936 33.0159L113.343 32.8784C110.963 25.8296 107.391 19.8739 102.624 15.016L102.317 15.3171ZM112.936 33.0183C115.389 40.0129 116.617 47.8756 116.617 56.6091H117.047C117.047 47.8355 115.813 39.9236 113.342 32.876L112.936 33.0183ZM116.617 56.6091C116.617 63.2465 115.753 69.7013 114.026 75.9739L114.441 76.0881C116.178 69.7775 117.047 63.2843 117.047 56.6091H116.617ZM114.026 75.9732C112.298 82.1575 109.797 88.3437 106.521 94.5317L106.901 94.7329C110.19 88.5201 112.704 82.3054 114.441 76.0889L114.026 75.9732ZM106.52 94.5339C103.334 100.723 99.4192 107.006 94.7746 113.381L95.1221 113.634C99.7781 107.243 103.705 100.942 106.902 94.7307L106.52 94.5339ZM94.7755 113.379C90.1282 119.667 84.8881 126.274 79.0549 133.201L79.3838 133.478C85.2219 126.545 90.4678 119.931 95.1212 113.635L94.7755 113.379ZM79.0432 133.216L53.4665 169.735L53.8187 169.981L79.3954 133.463L79.0432 133.216ZM53.6426 170.073H121.346V169.643H53.6426V170.073ZM121.131 169.858V202H121.561V169.858H121.131Z" fill="#FE6601" fill-opacity="0.6"/>
</svg>
