<svg width="130" height="222" viewBox="0 0 130 222" fill="none" xmlns="http://www.w3.org/2000/svg">
<path d="M42.4714 91.879V91.6459H42.2382V91.879H42.4714ZM79.7029 83.8691L79.5094 83.7389L79.5088 83.7397L79.7029 83.8691ZM83.8562 51.3842L83.6291 51.4377L83.6312 51.4456L83.8562 51.3842ZM79.9995 42.781L79.8065 42.9122L79.813 42.9209L79.9995 42.781ZM57.008 36.551L56.9141 36.3376L56.9108 36.339L57.008 36.551ZM44.8447 58.9492V59.1824H45.0779V58.9492H44.8447ZM2.8666 58.9492H2.63344V59.1824H2.8666V58.9492ZM7.61324 34.771L7.82679 34.8646L7.82725 34.8636L7.61324 34.771ZM20.5182 16.2294L20.6767 16.4004L20.6784 16.3989L20.5182 16.2294ZM39.6531 4.36284L39.7356 4.58092L39.7372 4.58031L39.6531 4.36284ZM89.3445 4.06618L89.2691 4.28682L89.2716 4.28765L89.3445 4.06618ZM109.369 15.7844L109.209 15.9538L109.212 15.9567L109.369 15.7844ZM122.423 35.0677L122.206 35.1538L122.207 35.1572L122.423 35.0677ZM125.241 75.5625L125.017 75.499L125.016 75.5024L125.241 75.5625ZM119.901 88.319L120.101 88.439L120.102 88.4368L119.901 88.319ZM99.4311 108.047L99.3214 107.842L98.892 108.071L99.3395 108.262L99.4311 108.047ZM122.126 127.627L121.923 127.742L121.924 127.744L122.126 127.627ZM124.499 185.477L124.286 185.383L124.285 185.386L124.499 185.477ZM110.556 205.502L110.712 205.675L110.714 205.674L110.556 205.502ZM89.4928 217.813L89.5681 218.034L89.5705 218.033L89.4928 217.813ZM40.0981 218.258L40.0243 218.48L40.0252 218.48L40.0981 218.258ZM20.2215 206.837L20.0659 207.01L20.0673 207.012L20.2215 206.837ZM6.27825 187.553L6.06608 187.65L6.06655 187.651L6.27825 187.553ZM0.938279 159.815V159.582H0.705116V159.815H0.938279ZM42.9164 159.815H43.1495V159.582H42.9164V159.815ZM44.548 170.792L44.3262 170.864L44.3268 170.866L44.548 170.792ZM48.998 179.395L48.8123 179.536L48.8152 179.54L48.998 179.395ZM55.673 185.032L55.5624 185.237L55.5657 185.239L55.673 185.032ZM81.4828 179.099L81.3014 178.952L81.298 178.956L81.4828 179.099ZM86.2295 169.902L86.4525 169.97L86.453 169.968L86.2295 169.902ZM81.1862 133.264L81.0096 133.416L81.0129 133.42L81.1862 133.264ZM42.4714 125.699H42.2382V125.932H42.4714V125.699ZM42.4714 92.1122H62.7929V91.6459H42.4714V92.1122ZM62.7929 92.1122C70.5661 92.1122 76.2845 89.417 79.8969 83.9984L79.5088 83.7397C76.0013 89.0011 70.4463 91.6459 62.7929 91.6459V92.1122ZM79.8963 83.9992C83.5891 78.51 85.4243 71.241 85.4243 62.2125H84.958C84.958 71.1818 83.1344 78.3504 79.5094 83.7389L79.8963 83.9992ZM85.4243 62.2125C85.4243 58.2397 84.9774 54.6093 84.0811 51.3229L83.6312 51.4456C84.5149 54.6859 84.958 58.2743 84.958 62.2125H85.4243ZM84.0831 51.3308C83.2859 47.9424 81.9882 45.044 80.186 42.6411L79.813 42.9209C81.5708 45.2646 82.8443 48.1017 83.6292 51.4377L84.0831 51.3308ZM80.1923 42.6499C78.4907 40.1474 76.3366 38.1933 73.7318 36.7907L73.5107 37.2013C76.048 38.5675 78.1461 40.4701 79.8067 42.9121L80.1923 42.6499ZM73.7318 36.7907C71.1219 35.3854 68.1162 34.6862 64.7213 34.6862V35.1525C68.0508 35.1525 70.9784 35.8378 73.5107 37.2013L73.7318 36.7907ZM64.7213 34.6862C62.0186 34.6862 59.4155 35.2369 56.9141 36.3376L57.1019 36.7644C59.5448 35.6895 62.084 35.1525 64.7213 35.1525V34.6862ZM56.9108 36.339C54.5054 37.4415 52.4019 39.0449 50.601 41.1459L50.955 41.4494C52.7141 39.3971 54.7639 37.836 57.1051 36.763L56.9108 36.339ZM50.601 41.1459C48.8003 43.2467 47.3533 45.7935 46.2575 48.7823L46.6953 48.9429C47.7749 45.9984 49.1957 43.5019 50.955 41.4494L50.601 41.1459ZM46.2575 48.7823C45.1587 51.7791 44.6115 55.1691 44.6115 58.9492H45.0779C45.0779 55.2138 45.6185 51.8795 46.6953 48.9429L46.2575 48.7823ZM44.8447 58.716H2.8666V59.1824H44.8447V58.716ZM3.09976 58.9492C3.09976 50.0773 4.67687 42.0504 7.82679 34.8646L7.3997 34.6774C4.22076 41.9294 2.63344 50.0212 2.63344 58.9492H3.09976ZM7.82725 34.8636C10.9798 27.5733 15.2633 21.4201 20.6767 16.4004L20.3596 16.0585C14.8953 21.1254 10.5755 27.3333 7.39923 34.6785L7.82725 34.8636ZM20.6784 16.3989C26.0938 11.2788 32.4454 7.33938 39.7356 4.58092L39.5706 4.14477C32.2253 6.92406 25.8203 10.8957 20.358 16.06L20.6784 16.3989ZM39.7372 4.58031C47.1251 1.72363 55.0569 0.294357 63.5346 0.294357V-0.171967C55.0035 -0.171967 47.0142 1.26653 39.569 4.14537L39.7372 4.58031ZM63.5346 0.294357C72.9068 0.294357 81.4842 1.62617 89.2691 4.28681L89.4199 3.84554C81.5803 1.16621 72.9512 -0.171967 63.5346 -0.171967V0.294357ZM89.2716 4.28765C97.0537 6.84888 103.698 10.7381 109.209 15.9538L109.53 15.6151C103.965 10.3486 97.2595 6.42567 89.4174 3.8447L89.2716 4.28765ZM109.212 15.9567C114.82 21.073 119.152 27.4704 122.206 35.1538L122.639 34.9816C119.562 27.2383 115.191 20.7803 109.526 15.6122L109.212 15.9567ZM122.207 35.1572C125.358 42.7376 126.936 51.5566 126.936 61.6192H127.402C127.402 51.5085 125.816 42.6265 122.638 34.9782L122.207 35.1572ZM126.936 61.6192C126.936 66.3445 126.296 70.9709 125.017 75.499L125.465 75.6259C126.757 71.0563 127.402 66.3872 127.402 61.6192H126.936ZM125.016 75.5024C123.834 79.9317 122.063 84.1645 119.7 88.2013L120.102 88.4368C122.486 84.3647 124.274 80.0931 125.466 75.6225L125.016 75.5024ZM119.701 88.1991C117.338 92.1373 114.433 95.8307 110.984 99.2791L111.314 99.6089C114.788 96.1351 117.717 92.4118 120.101 88.439L119.701 88.1991ZM110.984 99.2791C107.639 102.624 103.752 105.478 99.3214 107.842L99.5408 108.253C104.01 105.87 107.935 102.988 111.314 99.6089L110.984 99.2791ZM99.3395 108.262C109.483 112.595 117.007 119.089 121.923 127.742L122.329 127.512C117.356 118.761 109.75 112.202 99.5227 107.833L99.3395 108.262ZM121.924 127.744C126.943 136.405 129.458 146.647 129.458 158.48H129.924C129.924 146.58 127.395 136.254 122.328 127.51L121.924 127.744ZM129.458 158.48C129.458 168.54 127.732 177.506 124.286 185.383L124.713 185.57C128.189 177.625 129.924 168.594 129.924 158.48H129.458ZM124.285 185.386C120.935 193.268 116.306 199.915 110.398 205.33L110.714 205.674C116.673 200.211 121.34 193.508 124.714 185.568L124.285 185.386ZM110.4 205.328C104.491 210.646 97.4973 214.735 89.4151 217.594L89.5705 218.033C97.706 215.156 104.754 211.037 110.712 205.675L110.4 205.328ZM89.4174 217.593C81.3351 220.353 72.6092 221.733 63.2379 221.733V222.2C72.6555 222.2 81.4328 220.812 89.5681 218.034L89.4174 217.593ZM63.2379 221.733C55.3516 221.733 47.6629 220.501 40.1709 218.037L40.0252 218.48C47.5642 220.96 55.3021 222.2 63.2379 222.2V221.733ZM40.1718 218.037C32.7847 215.575 26.1865 211.783 20.3757 206.662L20.0673 207.012C25.9253 212.175 32.5782 215.997 40.0243 218.48L40.1718 218.037ZM20.3772 206.663C14.6676 201.544 10.038 195.143 6.48995 187.456L6.06655 187.651C9.63847 195.39 14.3043 201.845 20.0659 207.01L20.3772 206.663ZM6.49042 187.457C2.94722 179.681 1.17144 170.47 1.17144 159.815H0.705116C0.705116 170.521 2.48932 179.801 6.06608 187.65L6.49042 187.457ZM0.938279 160.048H42.9164V159.582H0.938279V160.048ZM42.6832 159.815C42.6832 163.792 43.2301 167.476 44.3262 170.864L44.7699 170.72C43.6904 167.384 43.1495 163.749 43.1495 159.815H42.6832ZM44.3268 170.866C45.4218 174.151 46.9165 177.042 48.8124 179.536L49.1837 179.254C47.3218 176.804 45.8498 173.96 44.7692 170.718L44.3268 170.866ZM48.8152 179.54C50.7131 181.937 52.9623 183.837 55.5624 185.237L55.7835 184.827C53.2414 183.458 51.0407 181.6 49.1808 179.25L48.8152 179.54ZM55.5657 185.239C58.2705 186.641 61.2248 187.342 64.4246 187.342V186.875C61.2955 186.875 58.4154 186.191 55.7803 184.825L55.5657 185.239ZM64.4246 187.342C68.1133 187.342 71.4121 186.644 74.3159 185.242L74.1132 184.822C71.2814 186.189 68.0536 186.875 64.4246 186.875V187.342ZM74.3159 185.242C77.217 183.841 79.6682 181.84 81.6676 179.241L81.298 178.956C79.342 181.499 76.9476 183.454 74.1132 184.822L74.3159 185.242ZM81.6642 179.245C83.7619 176.648 85.3571 173.555 86.4525 169.97L86.0065 169.834C84.9263 173.369 83.3571 176.407 81.3015 178.952L81.6642 179.245ZM86.453 169.968C87.5481 166.285 88.0943 162.208 88.0943 157.739H87.628C87.628 162.17 87.0864 166.201 86.006 169.835L86.453 169.968ZM88.0943 157.739C88.0943 146.347 85.8674 138.117 81.3595 133.108L81.0129 133.42C85.4049 138.3 87.628 146.386 87.628 157.739H88.0943ZM81.3627 133.111C76.9589 128.007 70.7578 125.466 62.7929 125.466V125.932C70.6502 125.932 76.7112 128.434 81.0096 133.416L81.3627 133.111ZM62.7929 125.466H42.4714V125.932H62.7929V125.466ZM42.7045 125.699V91.879H42.2382V125.699H42.7045Z" fill="#FE6601" fill-opacity="0.6"/>
</svg>
